<svg xmlns="http://www.w3.org/2000/svg" viewBox="0 0 151 209.51"><defs><style>.cls-1{fill:#fff;}.cls-1,.cls-2{stroke:#231f20;stroke-miterlimit:10;}.cls-2{fill:none;}.cls-3{fill:#231f20;}</style></defs><title>Asset 1</title><g id="Layer_2" data-name="Layer 2"><g id="Layer_1-2" data-name="Layer 1"><path class="cls-1" d="M117.4,27.7c-8.66-8-16.71-17-22.72-27.2H24.44A24,24,0,0,0,.5,24.44V185.07A24,24,0,0,0,24.44,209H126.56a24,24,0,0,0,23.94-23.94V52.38A195.7,195.7,0,0,1,117.4,27.7Z"/><path class="cls-2" d="M148.1,54.39l2.4,2.49"/><rect class="cls-3" x="79.97" y="56.88" width="13.83" height="13.83"/><rect class="cls-3" x="26.9" y="56.88" width="13.83" height="13.83"/><rect class="cls-3" x="106.88" y="82.95" width="13.83" height="13.83"/><rect class="cls-3" x="53.8" y="82.95" width="13.83" height="13.83"/><rect class="cls-3" x="106.88" y="109.01" width="13.83" height="13.83"/><rect class="cls-3" x="80.34" y="109.01" width="13.83" height="13.83"/><rect class="cls-3" x="27.26" y="109.01" width="13.83" height="13.83"/><rect class="cls-3" x="80.34" y="135.07" width="13.83" height="13.83"/><rect class="cls-3" x="53.8" y="135.07" width="13.83" height="13.83"/><rect class="cls-3" x="27.26" y="135.07" width="13.83" height="13.83"/><rect class="cls-3" x="106.51" y="161.14" width="13.83" height="13.83"/><rect class="cls-3" x="80.34" y="161.14" width="13.83" height="13.83"/><rect class="cls-3" x="53.8" y="161.14" width="13.83" height="13.83"/></g></g></svg>