<svg width="50" height="50" viewBox="0 0 50 50" fill="none" xmlns="http://www.w3.org/2000/svg">
<g clip-path="url(#clip0_39_258)">
<path d="M4.86845 42H24.7415H44.0587C46.8856 42 49.1605 38.0579 47.3568 32.7407C46.007 28.7617 41.0609 27.1766 38.5008 26.8097C37.937 26.7288 37.487 26.2461 37.4475 25.6778C37.1978 22.0846 34.8946 17 28.0395 17C21.2314 17 19.0347 21.1536 17.9789 24.3456C17.8013 24.8824 17.2295 25.1843 16.6903 25.0139C14.4806 24.3159 13.1243 24.1207 11.078 25.7963C9.09517 27.42 9.19853 29.8028 9.59961 31.6669C9.77567 32.4851 8.93743 33.3343 8.10158 33.3765C5.83712 33.4911 3.06764 34.7605 2.30111 37C1.33898 39.8109 2.81456 42 4.86845 42Z" stroke="black" stroke-width="3"/>
<mask id="path-2-inside-1_39_258" fill="white">
<path d="M20.4396 21.5422C19.916 20.0619 19.0209 18.7399 17.8384 17.7004C16.6559 16.6609 15.225 15.9381 13.6802 15.6C12.1354 15.262 10.5275 15.3198 9.00781 15.7679C7.48811 16.2161 6.10653 17.04 4.99306 18.162C3.87958 19.284 3.07079 20.6672 2.64278 22.1817C2.21477 23.6961 2.18161 25.2919 2.54641 26.819C2.91122 28.3461 3.66199 29.7542 4.72812 30.911C5.79424 32.0677 7.14067 32.935 8.64074 33.4313L9.83387 29.9241C8.93253 29.6259 8.12351 29.1048 7.48291 28.4097C6.84232 27.7147 6.3912 26.8686 6.172 25.951C5.95281 25.0335 5.97273 24.0746 6.22991 23.1646C6.48708 22.2546 6.97305 21.4235 7.6421 20.7493C8.31115 20.0751 9.14129 19.5801 10.0544 19.3108C10.9676 19.0415 11.9337 19.0068 12.8619 19.21C13.7901 19.4131 14.6499 19.8474 15.3604 20.472C16.0709 21.0966 16.6088 21.8909 16.9234 22.7804L20.4396 21.5422Z"/>
</mask>
<path d="M20.4396 21.5422C19.916 20.0619 19.0209 18.7399 17.8384 17.7004C16.6559 16.6609 15.225 15.9381 13.6802 15.6C12.1354 15.262 10.5275 15.3198 9.00781 15.7679C7.48811 16.2161 6.10653 17.04 4.99306 18.162C3.87958 19.284 3.07079 20.6672 2.64278 22.1817C2.21477 23.6961 2.18161 25.2919 2.54641 26.819C2.91122 28.3461 3.66199 29.7542 4.72812 30.911C5.79424 32.0677 7.14067 32.935 8.64074 33.4313L9.83387 29.9241C8.93253 29.6259 8.12351 29.1048 7.48291 28.4097C6.84232 27.7147 6.3912 26.8686 6.172 25.951C5.95281 25.0335 5.97273 24.0746 6.22991 23.1646C6.48708 22.2546 6.97305 21.4235 7.6421 20.7493C8.31115 20.0751 9.14129 19.5801 10.0544 19.3108C10.9676 19.0415 11.9337 19.0068 12.8619 19.21C13.7901 19.4131 14.6499 19.8474 15.3604 20.472C16.0709 21.0966 16.6088 21.8909 16.9234 22.7804L20.4396 21.5422Z" stroke="black" stroke-width="6" mask="url(#path-2-inside-1_39_258)"/>
<rect x="21.0784" y="11" width="2.70665" height="6.24289" rx="1.35333" transform="rotate(40.7903 21.0784 11)" fill="black"/>
<path d="M10.0149 9.38309C10.0067 8.63571 10.6059 8.02316 11.3532 8.01492V8.01492C12.1006 8.00667 12.7132 8.60585 12.7214 9.35323L12.7623 13.0592C12.7705 13.8066 12.1714 14.4191 11.424 14.4274V14.4274C10.6766 14.4356 10.0641 13.8365 10.0558 13.0891L10.0149 9.38309Z" fill="black"/>
<path d="M0.615463 13.9509C0.117929 13.3931 0.166756 12.5376 0.724519 12.0401C1.28228 11.5426 2.13777 11.5914 2.6353 12.1492L5.1024 14.9149C5.59994 15.4727 5.55111 16.3282 4.99335 16.8257C4.43559 17.3232 3.5801 17.2744 3.08257 16.7167L0.615463 13.9509Z" fill="black"/>
</g>
<defs>
<clipPath id="clip0_39_258">
<rect width="50" height="50" fill="white"/>
</clipPath>
</defs>
</svg>
