<?xml version="1.0" encoding="utf-8"?>
<!-- Generator: Adobe Illustrator 22.0.1, SVG Export Plug-In . SVG Version: 6.00 Build 0)  -->
<svg version="1.1" id="Layer_1" xmlns="http://www.w3.org/2000/svg" xmlns:xlink="http://www.w3.org/1999/xlink" x="0px" y="0px"
	 viewBox="0 0 48 48" style="enable-background:new 0 0 48 48;" xml:space="preserve">
<style type="text/css">
	.st0{fill:#340636;}
</style>
<g id="check_2_">
	<path class="st0" d="M33.5,29v4c0,0.8-0.7,1.5-1.5,1.5H14c-0.8,0-1.5-0.7-1.5-1.5V15c0-0.8,0.7-1.5,1.5-1.5h16l2.6-2.6
		c-0.6-0.2-1.3-0.4-2.1-0.4h-15c-3.3,0-6,2.7-6,6v15c0,3.3,2.7,6,6,6h15c3.3,0,6-2.7,6-6V26L33.5,29z"/>
	<path class="st0" d="M42.4,14.2c0.3,0.3,0.3,0.8,0,1.1L25.9,31.8c-0.3,0.3-0.8,0.3-1.1,0L16,23c-0.3-0.3-0.3-0.8,0-1.1l3.5-3.5
		c0.3-0.3,0.8-0.3,1.1,0l4.3,4.3c0.3,0.3,0.8,0.3,1.1,0l11.9-11.9c0.3-0.3,0.8-0.3,1.1,0L42.4,14.2z"/>
</g>
</svg>
