<?xml version="1.0" encoding="utf-8"?>
<!-- Generator: Adobe Illustrator 22.1.0, SVG Export Plug-In . SVG Version: 6.00 Build 0)  -->
<svg version="1.1" id="Layer_1" xmlns="http://www.w3.org/2000/svg" xmlns:xlink="http://www.w3.org/1999/xlink" x="0px" y="0px"
	 viewBox="0 0 48 48" style="enable-background:new 0 0 48 48;" xml:space="preserve">
<style type="text/css">
	.st0{opacity:0.3;}
	.st1{fill:#340636;}
</style>
<g id="display_2_">
	<g class="st0">
		<rect x="6" y="9" width="36" height="21"/>
	</g>
	<path class="st1" d="M43.5,6h-39C3.7,6,3,6.7,3,7.5V33c0,0.8,0.7,1.5,1.5,1.5H21c0,0.3,0,0.8,0,1.5c0,3-2.9,3-2.9,3h-5.5
		c-0.3,0-0.5,0.2-0.5,0.5V42h24v-2.5c0-0.3-0.2-0.5-0.5-0.5H30c0,0-3,0-3-3c0-0.8,0-1.2,0-1.5h16.5c0.8,0,1.5-0.7,1.5-1.5V7.5
		C45,6.7,44.3,6,43.5,6z M42,33h-1.5v-1.5H42V33z M42,30H6V9h36V30z"/>
</g>
</svg>
