<?xml version="1.0" encoding="utf-8"?>
<!-- Generator: Adobe Illustrator 22.0.1, SVG Export Plug-In . SVG Version: 6.00 Build 0)  -->
<svg version="1.1" id="Layer_1" xmlns="http://www.w3.org/2000/svg" xmlns:xlink="http://www.w3.org/1999/xlink" x="0px" y="0px"
	 viewBox="0 0 48 48" style="enable-background:new 0 0 48 48;" xml:space="preserve">
<style type="text/css">
	.st0{fill:#340636;}
</style>
<g id="play-button_2_">
	<path class="st0" d="M24,42.4C13.9,42.4,5.6,34.1,5.6,24S13.9,5.6,24,5.6S42.4,13.9,42.4,24S34.1,42.4,24,42.4z M24,10.5
		c-7.4,0-13.5,6.1-13.5,13.5S16.6,37.5,24,37.5S37.5,31.4,37.5,24S31.4,10.5,24,10.5z M31.4,24.3l-11.6,6.8
		c-0.2,0.1-0.3,0.1-0.3-0.2V17.1c0-0.2,0.2-0.3,0.3-0.2l11.6,6.8C31.6,23.9,31.6,24.1,31.4,24.3z"/>
</g>
</svg>
