<svg width="2312" height="412" viewBox="0 0 2312 412" fill="none" xmlns="http://www.w3.org/2000/svg">
<path d="M0 0H2312V412H0V0Z" fill="#7140FF"/>
<rect width="2312" height="412" fill="url(#paint0_linear_23_17)"/>
<g>
<path d="M597.5 91V90.5H597H367H366.5V91V321V321.5H367H597H597.5V321V91ZM406.5 115C406.5 123.008 400.008 129.5 392 129.5C383.992 129.5 377.5 123.008 377.5 115C377.5 106.992 383.992 100.5 392 100.5C400.008 100.5 406.5 106.992 406.5 115ZM586.5 115C586.5 123.008 580.008 129.5 572 129.5C563.992 129.5 557.5 123.008 557.5 115C557.5 106.992 563.992 100.5 572 100.5C580.008 100.5 586.5 106.992 586.5 115ZM406.5 295C406.5 303.008 400.008 309.5 392 309.5C383.992 309.5 377.5 303.008 377.5 295C377.5 286.992 383.992 280.5 392 280.5C400.008 280.5 406.5 286.992 406.5 295ZM586.5 295C586.5 303.008 580.008 309.5 572 309.5C563.992 309.5 557.5 303.008 557.5 295C557.5 286.992 563.992 280.5 572 280.5C580.008 280.5 586.5 286.992 586.5 295ZM575.5 201C575.5 252.639 533.639 294.5 482 294.5C430.361 294.5 388.5 252.639 388.5 201C388.5 149.361 430.361 107.5 482 107.5C533.639 107.5 575.5 149.361 575.5 201Z" fill="white" stroke="white"/>
<path d="M429.5 236.5C429.5 239.959 426.897 242.5 424 242.5C421.103 242.5 418.5 239.959 418.5 236.5C418.5 233.041 421.103 230.5 424 230.5C426.897 230.5 429.5 233.041 429.5 236.5Z" stroke="white" stroke-width="5"/>
<path d="M420.986 229.466C420.986 229.466 417.197 206.315 449.187 183.165C481.178 160.014 499.698 159.593 499.698 159.593" stroke="white" stroke-width="5" stroke-linecap="round"/>
<path d="M544.902 232.686C543.27 229.853 539.652 228.88 536.819 230.512C533.987 232.144 533.014 235.762 534.646 238.595C536.277 241.427 539.896 242.4 542.728 240.768C545.561 239.137 546.534 235.518 544.902 232.686Z" stroke="white" stroke-width="5"/>
<path d="M535.409 241.555C535.409 241.555 517.24 256.394 481.211 240.232C445.182 224.07 435.572 208.232 435.572 208.232" stroke="white" stroke-width="5" stroke-linecap="round"/>
<path d="M475.577 131.971C473.966 134.814 474.964 138.426 477.808 140.038C480.651 141.65 484.263 140.651 485.875 137.808C487.487 134.964 486.488 131.352 483.645 129.74C480.801 128.128 477.189 129.127 475.577 131.971Z" stroke="white" stroke-width="5"/>
<path d="M488.038 135.647C488.038 135.647 510.047 143.767 514.412 183.013C518.778 222.259 510.012 238.579 510.012 238.579" stroke="white" stroke-width="5" stroke-linecap="round"/>
<path d="M425.633 195C425.633 195 416.437 172.104 427.305 163.362C438.174 154.619 462 159.199 462 159.199" stroke="white" stroke-width="5" stroke-linecap="round"/>
<path d="M515.532 156.978C515.532 156.978 540.391 158.913 543.477 172.638C546.564 186.363 531.799 205.833 531.799 205.833" stroke="white" stroke-width="5" stroke-linecap="round"/>
<path d="M504.248 253.363C504.248 253.363 490.023 273.841 476.618 269.573C463.213 265.305 453.866 242.728 453.866 242.728" stroke="white" stroke-width="5" stroke-linecap="round"/>
<path d="M482 209C486.418 209 490 205.642 490 201.5C490 197.358 486.418 194 482 194C477.582 194 474 197.358 474 201.5C474 205.642 477.582 209 482 209Z" fill="white"/>
</g>
<path d="M767.932 159.626H802.918V153.2H767.932V128.312H805.366V121.784H760.588V194H806.59V187.472H767.932V159.626ZM827.683 116.888H820.747V194H827.683V116.888ZM850.119 166.46C850.731 158.3 857.565 150.854 866.847 150.854C876.741 150.854 882.249 157.484 882.657 166.46H850.119ZM889.695 168.704C889.695 155.648 881.841 145.04 866.847 145.04C853.281 145.04 842.775 155.75 842.775 170.132C842.775 184.514 853.281 195.224 867.459 195.224C875.313 195.224 882.351 192.266 887.961 185.126L882.759 181.046C880.107 185.33 874.599 189.308 867.459 189.308C857.667 189.308 850.221 181.556 850.017 171.968H889.593C889.695 170.744 889.695 169.622 889.695 168.704ZM944.394 153.302C940.314 147.794 933.072 145.04 926.646 145.04C911.244 145.04 901.146 155.75 901.146 170.132C901.146 184.514 911.244 195.224 926.646 195.224C934.908 195.224 940.722 191.96 944.802 186.962L939.6 183.086C936.846 186.758 932.664 189.308 926.646 189.308C915.528 189.308 908.49 180.944 908.49 170.132C908.49 159.218 915.63 150.854 926.748 150.854C931.95 150.854 936.744 153.506 938.988 157.178L944.394 153.302ZM977.136 146.264H963.672V132.8H956.736V146.264H946.842V152.078H956.736V181.862C956.736 192.368 963.876 194.612 968.976 194.612C972.138 194.612 974.688 194.102 977.136 193.184L976.83 187.166C974.994 188.084 972.75 188.696 970.812 188.696C966.63 188.696 963.672 187.064 963.672 179.924V152.078H977.136V146.264ZM987.987 156.77V194H994.923V169.52C994.923 156.77 1001.55 151.466 1008.9 151.466C1010.73 151.466 1012.98 151.772 1013.79 152.078L1014.71 145.55C1013.28 145.142 1011.85 145.04 1010.12 145.04C1003.39 145.04 997.473 148.916 994.821 154.424H994.617C994.617 152.384 994.413 148.814 994.209 146.264H987.579C987.885 149.528 987.987 154.22 987.987 156.77ZM1070.38 170.132C1070.38 155.75 1059.77 145.04 1044.88 145.04C1030.09 145.04 1019.48 155.75 1019.48 170.132C1019.48 184.514 1030.09 195.224 1044.88 195.224C1059.77 195.224 1070.38 184.514 1070.38 170.132ZM1063.04 170.132C1063.04 180.842 1056 189.308 1044.88 189.308C1033.86 189.308 1026.83 180.842 1026.83 170.132C1026.83 159.422 1033.86 150.854 1044.88 150.854C1056 150.854 1063.04 159.422 1063.04 170.132ZM1084.9 146.264C1085.2 149.528 1085.31 154.22 1085.31 156.77V194H1092.24V169.52C1092.24 156.77 1099.38 150.854 1106.73 150.854C1116.72 150.854 1119.68 157.586 1119.68 167.582V194H1126.62V164.726C1126.62 152.894 1120.6 145.04 1108.46 145.04C1101.73 145.04 1094.79 148.916 1092.14 154.424H1091.94C1091.94 152.384 1091.73 148.814 1091.53 146.264H1084.9ZM1177.82 160.238H1190.06L1210.06 194H1219.03L1197.92 159.626C1208.42 158.504 1216.38 151.772 1216.38 141.062C1216.38 126.986 1205.98 121.784 1191.7 121.784H1170.48V194H1177.82V160.238ZM1177.82 128.108H1190.88C1201.79 128.108 1209.04 131.576 1209.04 141.062C1209.04 149.63 1202.3 153.914 1190.57 153.914H1177.82V128.108ZM1233.81 166.46C1234.43 158.3 1241.26 150.854 1250.54 150.854C1260.44 150.854 1265.94 157.484 1266.35 166.46H1233.81ZM1273.39 168.704C1273.39 155.648 1265.54 145.04 1250.54 145.04C1236.98 145.04 1226.47 155.75 1226.47 170.132C1226.47 184.514 1236.98 195.224 1251.15 195.224C1259.01 195.224 1266.05 192.266 1271.66 185.126L1266.45 181.046C1263.8 185.33 1258.29 189.308 1251.15 189.308C1241.36 189.308 1233.92 181.556 1233.71 171.968H1273.29C1273.39 170.744 1273.39 169.622 1273.39 168.704ZM1317.8 164.726C1300.36 164.726 1284.14 166.052 1284.14 180.74C1284.14 191.348 1293.42 195.224 1300.67 195.224C1308.32 195.224 1313.62 192.572 1318.01 186.248H1318.21C1318.21 188.798 1318.52 191.654 1318.92 194H1325.15C1324.64 191.348 1324.33 186.962 1324.33 183.29V162.38C1324.33 150.752 1316.07 145.04 1305.77 145.04C1297.61 145.04 1290.87 147.998 1287 151.874L1290.87 156.464C1294.24 153.098 1299.44 150.854 1305.05 150.854C1313.31 150.854 1317.8 154.934 1317.8 163.196V164.726ZM1317.8 170.132V173.702C1317.8 182.168 1312.29 189.512 1302.5 189.512C1297.1 189.512 1291.28 187.268 1291.28 180.434C1291.28 171.356 1304.44 170.132 1315.76 170.132H1317.8ZM1381.98 153.302C1377.9 147.794 1370.66 145.04 1364.23 145.04C1348.83 145.04 1338.73 155.75 1338.73 170.132C1338.73 184.514 1348.83 195.224 1364.23 195.224C1372.49 195.224 1378.31 191.96 1382.39 186.962L1377.18 183.086C1374.43 186.758 1370.25 189.308 1364.23 189.308C1353.11 189.308 1346.07 180.944 1346.07 170.132C1346.07 159.218 1353.21 150.854 1364.33 150.854C1369.53 150.854 1374.33 153.506 1376.57 157.178L1381.98 153.302ZM1414.72 146.264H1401.26V132.8H1394.32V146.264H1384.43V152.078H1394.32V181.862C1394.32 192.368 1401.46 194.612 1406.56 194.612C1409.72 194.612 1412.27 194.102 1414.72 193.184L1414.41 187.166C1412.58 188.084 1410.33 188.696 1408.4 188.696C1404.21 188.696 1401.26 187.064 1401.26 179.924V152.078H1414.72V146.264ZM1451.48 194H1472.9C1489.52 194 1499.83 186.044 1499.83 174.008C1499.83 163.502 1492.89 156.974 1483.51 155.954V155.75C1491.16 154.016 1496.26 147.794 1496.26 140.246C1496.26 125.762 1484.02 121.784 1473 121.784H1451.48V194ZM1458.82 128.108H1471.57C1481.06 128.108 1488.91 131.576 1488.91 140.756C1488.91 150.344 1480.65 153.404 1473.61 153.404H1458.82V128.108ZM1458.82 159.422H1473.82C1485.55 159.422 1492.38 164.114 1492.38 173.6C1492.38 183.698 1483.1 187.676 1472.49 187.676H1458.82V159.422ZM1563.35 170.132C1563.35 155.75 1552.74 145.04 1537.85 145.04C1523.06 145.04 1512.45 155.75 1512.45 170.132C1512.45 184.514 1523.06 195.224 1537.85 195.224C1552.74 195.224 1563.35 184.514 1563.35 170.132ZM1556 170.132C1556 180.842 1548.96 189.308 1537.85 189.308C1526.83 189.308 1519.79 180.842 1519.79 170.132C1519.79 159.422 1526.83 150.854 1537.85 150.854C1548.96 150.854 1556 159.422 1556 170.132ZM1585.31 146.264H1578.37V194H1585.31V146.264ZM1586.74 127.904C1586.74 125.048 1584.29 123.008 1581.84 123.008C1579.39 123.008 1576.95 125.048 1576.95 127.904C1576.95 130.76 1579.39 132.8 1581.84 132.8C1584.29 132.8 1586.74 130.76 1586.74 127.904ZM1610.91 116.888H1603.98V194H1610.91V116.888ZM1633.35 166.46C1633.96 158.3 1640.79 150.854 1650.08 150.854C1659.97 150.854 1665.48 157.484 1665.89 166.46H1633.35ZM1672.92 168.704C1672.92 155.648 1665.07 145.04 1650.08 145.04C1636.51 145.04 1626 155.75 1626 170.132C1626 184.514 1636.51 195.224 1650.69 195.224C1658.54 195.224 1665.58 192.266 1671.19 185.126L1665.99 181.046C1663.34 185.33 1657.83 189.308 1650.69 189.308C1640.9 189.308 1633.45 181.556 1633.25 171.968H1672.82C1672.92 170.744 1672.92 169.622 1672.92 168.704ZM1687.84 156.77V194H1694.78V169.52C1694.78 156.77 1701.41 151.466 1708.75 151.466C1710.59 151.466 1712.83 151.772 1713.65 152.078L1714.57 145.55C1713.14 145.142 1711.71 145.04 1709.98 145.04C1703.24 145.04 1697.33 148.916 1694.68 154.424H1694.47C1694.47 152.384 1694.27 148.814 1694.06 146.264H1687.43C1687.74 149.528 1687.84 154.22 1687.84 156.77ZM1731.53 185.942H1731.84C1735.82 191.858 1742.96 195.224 1749.79 195.224C1764.68 195.224 1774.48 184.208 1774.48 170.132C1774.48 156.056 1764.68 145.04 1749.79 145.04C1742.96 145.04 1735.82 148.304 1731.84 154.526H1731.53V146.264H1724.6V218.48H1731.53V185.942ZM1767.13 170.132C1767.13 180.74 1760.6 189.308 1749.08 189.308C1738.37 189.308 1730.72 181.046 1730.72 170.132C1730.72 159.218 1738.37 150.854 1749.08 150.854C1760.6 150.854 1767.13 159.524 1767.13 170.132ZM1796.48 116.888H1789.55V194H1796.48V116.888ZM1845.13 164.726C1827.69 164.726 1811.47 166.052 1811.47 180.74C1811.47 191.348 1820.76 195.224 1828 195.224C1835.65 195.224 1840.95 192.572 1845.34 186.248H1845.54C1845.54 188.798 1845.85 191.654 1846.26 194H1852.48C1851.97 191.348 1851.66 186.962 1851.66 183.29V162.38C1851.66 150.752 1843.4 145.04 1833.1 145.04C1824.94 145.04 1818.21 147.998 1814.33 151.874L1818.21 156.464C1821.57 153.098 1826.77 150.854 1832.38 150.854C1840.65 150.854 1845.13 154.934 1845.13 163.196V164.726ZM1845.13 170.132V173.702C1845.13 182.168 1839.63 189.512 1829.83 189.512C1824.43 189.512 1818.61 187.268 1818.61 180.434C1818.61 171.356 1831.77 170.132 1843.09 170.132H1845.13ZM1890.06 146.264H1876.59V132.8H1869.66V146.264H1859.76V152.078H1869.66V181.862C1869.66 192.368 1876.8 194.612 1881.9 194.612C1885.06 194.612 1887.61 194.102 1890.06 193.184L1889.75 187.166C1887.91 188.084 1885.67 188.696 1883.73 188.696C1879.55 188.696 1876.59 187.064 1876.59 179.924V152.078H1890.06V146.264ZM1904.78 166.46C1905.39 158.3 1912.23 150.854 1921.51 150.854C1931.4 150.854 1936.91 157.484 1937.32 166.46H1904.78ZM1944.36 168.704C1944.36 155.648 1936.5 145.04 1921.51 145.04C1907.94 145.04 1897.44 155.75 1897.44 170.132C1897.44 184.514 1907.94 195.224 1922.12 195.224C1929.98 195.224 1937.01 192.266 1942.62 185.126L1937.42 181.046C1934.77 185.33 1929.26 189.308 1922.12 189.308C1912.33 189.308 1904.88 181.556 1904.68 171.968H1944.26C1944.36 170.744 1944.36 169.622 1944.36 168.704Z" fill="#F2F2F2"/>
<path d="M788.893 282L773.899 245.892H765.433L750.286 282H759.772L762.424 274.911H776.398L779.203 282H788.893ZM774.001 267.924H764.923L769.513 255.531L774.001 267.924ZM835.657 253.338V245.892H811.891V282H820.51V267.975H834.484V260.784H820.51V253.338H835.657ZM869.384 269.199C869.384 260.886 862.958 255.786 855.257 255.786C847.607 255.786 841.181 260.886 841.181 269.199C841.181 277.512 847.607 282.816 855.257 282.816C862.958 282.816 869.384 277.512 869.384 269.199ZM861.326 269.199C861.326 272.463 859.235 275.778 855.308 275.778C851.381 275.778 849.29 272.463 849.29 269.199C849.29 265.935 851.33 262.722 855.257 262.722C859.184 262.722 861.326 265.935 861.326 269.199ZM903.546 282V256.602H895.182V270.321C895.182 273.228 893.601 275.778 890.694 275.778C887.634 275.778 886.92 273.228 886.92 270.372V256.602H878.505V272.31C878.505 277.41 880.902 282.714 887.736 282.714C891.306 282.714 894.213 280.725 895.386 278.481H895.488V282H903.546ZM939.259 282V266.292C939.259 261.192 936.811 255.888 929.977 255.888C926.458 255.888 923.551 257.877 922.378 260.121H922.276V256.602H914.167V282H922.582V268.23C922.582 265.323 924.112 262.773 927.07 262.773C930.079 262.773 930.844 265.323 930.844 268.128V282H939.259ZM976.602 282V243.444H968.238V259.305H968.136C966.708 257.622 964.107 255.888 960.384 255.888C952.989 255.888 948.399 262.11 948.399 269.199C948.399 276.288 952.836 282.714 960.486 282.714C963.852 282.714 967.167 281.235 968.799 278.685H968.901V282H976.602ZM968.595 269.25C968.595 272.565 966.249 275.778 962.475 275.778C958.497 275.778 956.457 272.514 956.457 269.199C956.457 265.935 958.497 262.722 962.475 262.722C966.249 262.722 968.595 266.037 968.595 269.25ZM1002.32 271.8C1002.32 274.962 1000.43 277.002 997.063 277.002C995.38 277.002 993.442 276.339 993.442 274.401C993.442 271.392 997.573 270.933 1001.25 270.933H1002.32V271.8ZM991.198 264.609C992.728 263.181 995.074 262.008 997.471 262.008C1000.07 262.008 1002.06 263.181 1002.06 265.68V266.088C994.666 266.088 985.741 267.312 985.741 274.656C985.741 280.623 990.943 282.612 994.972 282.612C997.981 282.612 1000.89 281.388 1002.16 279.297H1002.32V282H1009.97V269.199C1009.97 259.968 1006.8 255.786 998.287 255.786C994.156 255.786 989.923 257.265 986.965 260.07L991.198 264.609ZM1034.84 262.875V256.602H1028.87V249.921H1020.66V256.602H1016.63V262.875H1020.71V273.585C1020.71 278.991 1022.95 282.612 1029.74 282.612C1031.52 282.612 1033.46 282.255 1034.58 281.847L1034.48 275.727C1033.87 275.982 1032.85 276.135 1032.03 276.135C1029.63 276.135 1028.87 274.911 1028.87 272.565V262.875H1034.84ZM1051.92 248.493C1051.92 245.943 1049.78 243.903 1047.13 243.903C1044.43 243.903 1042.34 246.045 1042.34 248.493C1042.34 250.992 1044.43 253.083 1047.13 253.083C1049.78 253.083 1051.92 251.094 1051.92 248.493ZM1051.31 282V256.602H1042.95V282H1051.31ZM1088.95 269.199C1088.95 260.886 1082.52 255.786 1074.82 255.786C1067.17 255.786 1060.74 260.886 1060.74 269.199C1060.74 277.512 1067.17 282.816 1074.82 282.816C1082.52 282.816 1088.95 277.512 1088.95 269.199ZM1080.89 269.199C1080.89 272.463 1078.8 275.778 1074.87 275.778C1070.94 275.778 1068.85 272.463 1068.85 269.199C1068.85 265.935 1070.89 262.722 1074.82 262.722C1078.75 262.722 1080.89 265.935 1080.89 269.199ZM1123.41 282V266.292C1123.41 261.192 1120.96 255.888 1114.13 255.888C1110.61 255.888 1107.7 257.877 1106.53 260.121H1106.43V256.602H1098.32V282H1106.74V268.23C1106.74 265.323 1108.27 262.773 1111.22 262.773C1114.23 262.773 1115 265.323 1115 268.128V282H1123.41ZM1166.98 242.985C1165.86 242.628 1164.38 242.475 1162.95 242.475C1154.48 242.475 1152.03 247.932 1152.03 254.154V256.602H1147.39V262.875H1152.03V282H1160.4V262.875H1166.06V256.602H1160.4V254.052C1160.4 251.706 1161.06 249.258 1164.12 249.258C1164.94 249.258 1165.8 249.411 1166.42 249.615L1166.98 242.985ZM1200.24 269.199C1200.24 260.886 1193.82 255.786 1186.12 255.786C1178.47 255.786 1172.04 260.886 1172.04 269.199C1172.04 277.512 1178.47 282.816 1186.12 282.816C1193.82 282.816 1200.24 277.512 1200.24 269.199ZM1192.18 269.199C1192.18 272.463 1190.09 275.778 1186.17 275.778C1182.24 275.778 1180.15 272.463 1180.15 269.199C1180.15 265.935 1182.19 262.722 1186.12 262.722C1190.04 262.722 1192.18 265.935 1192.18 269.199ZM1226.45 256.092C1226.04 255.939 1225.33 255.888 1224.66 255.888C1221.55 255.888 1219.05 257.724 1217.78 260.274H1217.68V256.602H1209.62V282H1217.98V268.944C1217.98 266.853 1219.46 263.181 1223.95 263.181C1224.61 263.181 1225.33 263.232 1226.09 263.436L1226.45 256.092ZM1275.84 249.411C1272.68 246.504 1268.09 244.974 1264.01 244.974C1257.28 244.974 1250.04 248.289 1250.04 256.296C1250.04 262.824 1254.68 265.17 1259.27 266.649C1264.01 268.179 1266.76 269.046 1266.76 271.8C1266.76 274.707 1264.42 275.727 1261.77 275.727C1258.91 275.727 1255.7 274.095 1253.96 271.902L1248.25 277.716C1251.41 281.031 1256.61 282.918 1261.77 282.918C1268.91 282.918 1275.59 279.195 1275.59 270.882C1275.59 263.691 1269.26 261.6 1264.37 260.019C1260.95 258.948 1258.81 258.183 1258.81 255.786C1258.81 252.93 1261.61 252.165 1263.86 252.165C1266.1 252.165 1268.8 253.389 1270.28 255.276L1275.84 249.411ZM1307.3 259.203C1305.31 257.163 1301.48 255.786 1297.86 255.786C1289.96 255.786 1283.69 261.039 1283.69 269.301C1283.69 277.716 1289.91 282.816 1297.91 282.816C1301.64 282.816 1305.21 281.592 1307.3 279.552L1302.66 273.891C1301.64 275.115 1299.8 275.778 1298.12 275.778C1294.45 275.778 1292.15 272.82 1292.15 269.301C1292.15 265.782 1294.5 262.773 1298.02 262.773C1299.7 262.773 1301.54 263.589 1302.45 264.813L1307.3 259.203ZM1329.68 271.8C1329.68 274.962 1327.8 277.002 1324.43 277.002C1322.75 277.002 1320.81 276.339 1320.81 274.401C1320.81 271.392 1324.94 270.933 1328.61 270.933H1329.68V271.8ZM1318.57 264.609C1320.1 263.181 1322.44 262.008 1324.84 262.008C1327.44 262.008 1329.43 263.181 1329.43 265.68V266.088C1322.03 266.088 1313.11 267.312 1313.11 274.656C1313.11 280.623 1318.31 282.612 1322.34 282.612C1325.35 282.612 1328.26 281.388 1329.53 279.297H1329.68V282H1337.33V269.199C1337.33 259.968 1334.17 255.786 1325.66 255.786C1321.52 255.786 1317.29 257.265 1314.33 260.07L1318.57 264.609ZM1356.23 282V243.444H1347.76V282H1356.23ZM1381.92 271.8C1381.92 274.962 1380.03 277.002 1376.67 277.002C1374.99 277.002 1373.05 276.339 1373.05 274.401C1373.05 271.392 1377.18 270.933 1380.85 270.933H1381.92V271.8ZM1370.8 264.609C1372.33 263.181 1374.68 262.008 1377.08 262.008C1379.68 262.008 1381.67 263.181 1381.67 265.68V266.088C1374.27 266.088 1365.35 267.312 1365.35 274.656C1365.35 280.623 1370.55 282.612 1374.58 282.612C1377.59 282.612 1380.49 281.388 1381.77 279.297H1381.92V282H1389.57V269.199C1389.57 259.968 1386.41 255.786 1377.89 255.786C1373.76 255.786 1369.53 257.265 1366.57 260.07L1370.8 264.609ZM1428.2 269.199C1428.2 262.11 1423.61 255.888 1416.21 255.888C1412.49 255.888 1409.89 257.622 1408.46 259.305H1408.36V243.444H1400V282H1407.7V278.685H1407.8C1409.43 281.235 1412.75 282.714 1416.11 282.714C1423.76 282.714 1428.2 276.288 1428.2 269.199ZM1420.14 269.199C1420.14 272.514 1418.1 275.778 1414.12 275.778C1410.35 275.778 1408 272.565 1408 269.25C1408 266.037 1410.35 262.722 1414.12 262.722C1418.1 262.722 1420.14 265.935 1420.14 269.199ZM1446.16 282V243.444H1437.69V282H1446.16ZM1463.59 266.394C1463.8 263.793 1466.14 261.549 1469.36 261.549C1472.67 261.549 1474.36 263.742 1474.36 266.394H1463.59ZM1482.06 269.607C1482.06 260.937 1476.8 255.786 1469.31 255.786C1461.61 255.786 1455.59 261.09 1455.59 269.403C1455.59 277.971 1461.91 282.816 1469.56 282.816C1474.71 282.816 1478.69 280.878 1481.09 277.41L1475.27 273.738C1474.15 275.268 1472.32 276.39 1469.66 276.39C1466.65 276.39 1463.85 274.401 1463.59 271.596H1482.01C1482.06 270.984 1482.06 270.27 1482.06 269.607ZM1542.32 263.844C1542.32 250.176 1531.92 245.892 1521.67 245.892H1508.61V282H1522.08C1532.02 282 1542.32 276.543 1542.32 263.844ZM1533.25 263.844C1533.25 271.902 1527.48 274.452 1521.26 274.452H1517.13V253.338H1521.46C1527.48 253.338 1533.25 255.735 1533.25 263.844ZM1558.46 266.394C1558.66 263.793 1561.01 261.549 1564.22 261.549C1567.54 261.549 1569.22 263.742 1569.22 266.394H1558.46ZM1576.92 269.607C1576.92 260.937 1571.67 255.786 1564.17 255.786C1556.47 255.786 1550.45 261.09 1550.45 269.403C1550.45 277.971 1556.78 282.816 1564.43 282.816C1569.58 282.816 1573.56 280.878 1575.95 277.41L1570.14 273.738C1569.02 275.268 1567.18 276.39 1564.53 276.39C1561.52 276.39 1558.72 274.401 1558.46 271.596H1576.87C1576.92 270.984 1576.92 270.27 1576.92 269.607ZM1605.72 259.356C1603.22 257.01 1599.3 255.786 1595.52 255.786C1590.68 255.786 1584.97 258.234 1584.97 264.303C1584.97 269.097 1588.84 270.882 1592.36 271.698C1595.83 272.514 1597.41 273.024 1597.41 274.605C1597.41 276.237 1595.78 276.798 1594.4 276.798C1591.95 276.798 1589.66 275.574 1588.18 273.942L1583.49 278.889C1586.14 281.439 1590.42 282.816 1594.55 282.816C1599.76 282.816 1605.42 280.572 1605.42 274.146C1605.42 269.199 1601.18 267.261 1597.31 266.394C1594.04 265.68 1592.67 265.272 1592.67 263.844C1592.67 262.365 1594.25 261.804 1595.83 261.804C1597.87 261.804 1599.81 262.824 1601.13 264.099L1605.72 259.356ZM1631.41 268.077L1641.2 256.602H1631.05L1622.94 266.904H1622.79V243.444H1614.38V282H1622.79V269.811H1622.94L1631.26 282H1641.61L1631.41 268.077ZM1663.78 262.875V256.602H1657.81V249.921H1649.6V256.602H1645.57V262.875H1649.65V273.585C1649.65 278.991 1651.9 282.612 1658.68 282.612C1660.47 282.612 1662.4 282.255 1663.53 281.847L1663.42 275.727C1662.81 275.982 1661.79 276.135 1660.98 276.135C1658.58 276.135 1657.81 274.911 1657.81 272.565V262.875H1663.78ZM1698.72 269.199C1698.72 260.886 1692.29 255.786 1684.59 255.786C1676.94 255.786 1670.52 260.886 1670.52 269.199C1670.52 277.512 1676.94 282.816 1684.59 282.816C1692.29 282.816 1698.72 277.512 1698.72 269.199ZM1690.66 269.199C1690.66 272.463 1688.57 275.778 1684.64 275.778C1680.72 275.778 1678.63 272.463 1678.63 269.199C1678.63 265.935 1680.67 262.722 1684.59 262.722C1688.52 262.722 1690.66 265.935 1690.66 269.199ZM1736.35 269.199C1736.35 262.11 1731.71 255.888 1724.31 255.888C1720.59 255.888 1717.73 257.673 1716.2 259.713H1716.05V256.602H1708.1V294.24H1716.46V279.195H1716.56C1718.14 281.388 1721.15 282.714 1724.26 282.714C1731.91 282.714 1736.35 276.288 1736.35 269.199ZM1728.24 269.199C1728.24 272.514 1726.25 275.778 1722.27 275.778C1718.5 275.778 1716.15 272.565 1716.15 269.25C1716.15 266.037 1718.5 262.722 1722.27 262.722C1726.25 262.722 1728.24 265.935 1728.24 269.199ZM1796.26 282L1781.26 245.892H1772.8L1757.65 282H1767.14L1769.79 274.911H1783.76L1786.57 282H1796.26ZM1781.36 267.924H1772.29L1776.88 255.531L1781.36 267.924ZM1831.12 269.199C1831.12 262.11 1826.47 255.888 1819.08 255.888C1815.36 255.888 1812.5 257.673 1810.97 259.713H1810.82V256.602H1802.86V294.24H1811.23V279.195H1811.33C1812.91 281.388 1815.92 282.714 1819.03 282.714C1826.68 282.714 1831.12 276.288 1831.12 269.199ZM1823.01 269.199C1823.01 272.514 1821.02 275.778 1817.04 275.778C1813.27 275.778 1810.92 272.565 1810.92 269.25C1810.92 266.037 1813.27 262.722 1817.04 262.722C1821.02 262.722 1823.01 265.935 1823.01 269.199ZM1868.71 269.199C1868.71 262.11 1864.07 255.888 1856.68 255.888C1852.96 255.888 1850.1 257.673 1848.57 259.713H1848.42V256.602H1840.46V294.24H1848.82V279.195H1848.93C1850.51 281.388 1853.52 282.714 1856.63 282.714C1864.28 282.714 1868.71 276.288 1868.71 269.199ZM1860.61 269.199C1860.61 272.514 1858.62 275.778 1854.64 275.778C1850.86 275.778 1848.52 272.565 1848.52 269.25C1848.52 266.037 1850.86 262.722 1854.64 262.722C1858.62 262.722 1860.61 265.935 1860.61 269.199ZM1897.59 259.356C1895.09 257.01 1891.17 255.786 1887.39 255.786C1882.55 255.786 1876.84 258.234 1876.84 264.303C1876.84 269.097 1880.71 270.882 1884.23 271.698C1887.7 272.514 1889.28 273.024 1889.28 274.605C1889.28 276.237 1887.65 276.798 1886.27 276.798C1883.82 276.798 1881.53 275.574 1880.05 273.942L1875.36 278.889C1878.01 281.439 1882.29 282.816 1886.42 282.816C1891.63 282.816 1897.29 280.572 1897.29 274.146C1897.29 269.199 1893.05 267.261 1889.18 266.394C1885.91 265.68 1884.54 265.272 1884.54 263.844C1884.54 262.365 1886.12 261.804 1887.7 261.804C1889.74 261.804 1891.68 262.824 1893 264.099L1897.59 259.356Z" fill="#F2F2F2" fill-opacity="0.5"/>
<defs>
<filter id="filter0_b_23_17" x="362" y="86" width="240" height="240" filterUnits="userSpaceOnUse" color-interpolation-filters="sRGB">
<feFlood flood-opacity="0" result="BackgroundImageFix"/>
<feGaussianBlur in="BackgroundImage" stdDeviation="2"/>
<feComposite in2="SourceAlpha" operator="in" result="effect1_backgroundBlur_23_17"/>
<feBlend mode="normal" in="SourceGraphic" in2="effect1_backgroundBlur_23_17" result="shape"/>
</filter>
<linearGradient id="paint0_linear_23_17" x1="2396.5" y1="-160" x2="2335.15" y2="738.65" gradientUnits="userSpaceOnUse">
<stop stop-color="#FEDC2A"/>
<stop offset="0.51037" stop-color="#DD5789"/>
<stop offset="1" stop-color="#7A2C9E"/>
</linearGradient>
</defs>
</svg>
